# xmcd CD database file
#
# Track frame offsets:
#	150
#	28522
#	52392
#	71057
#	93220
#	117117
#	137947
#	155940
#	177117
#	193190
#
# Disc length: 2663 seconds
#
# Revision: 3
# Processed by: cddbd v1.5.2PL0 Copyright (c) Steve Scherf et al.
# Submitted via: CDex 1.51
#
DISCID=940a650a
DTITLE=浅川マキ - 闇のなかに置き去りにして－BLACKにGOOD LUCK－
DYEAR=1998
DGENRE=Jazz
TTITLE0=INTERLUDE
TTITLE1=向こう側の憂鬱
TTITLE2=別離 一本の毛髪にぶらさがる記憶のように
TTITLE3=閉ざす
TTITLE4=いい感じだろう、なぁ
TTITLE5=無題
TTITLE6=愛さないの愛せないの
TTITLE7=暮し
TTITLE8=あなた、オーライ
TTITLE9=INTERLUDE (instrumental)
EXTD=YEAR: 1998
EXTT0=
EXTT1=
EXTT2=
EXTT3=
EXTT4=
EXTT5=
EXTT6=
EXTT7=
EXTT8=
EXTT9=
PLAYORDER=
